# 3ds Max Wavefront OBJ Exporter v0.97b - (c)2007 guruware
# File Created: 11.04.2015 16:14:15

mtllib Coin.mtl

#
# object Cylinder001
#

v  61.3075 0.0000 -0.2358
v  57.6192 0.0000 -21.1531
v  57.6192 6.2344 -21.1531
v  61.3075 6.2344 -0.2358
v  46.9992 0.0000 -39.5474
v  46.9992 6.2344 -39.5474
v  30.7285 0.0000 -53.2001
v  30.7285 6.2344 -53.2001
v  10.7695 0.0000 -60.4646
v  10.7695 6.2344 -60.4646
v  -10.4704 0.0000 -60.4646
v  -10.4704 6.2344 -60.4646
v  -30.4294 0.0000 -53.2001
v  -30.4294 6.2344 -53.2001
v  -46.7001 0.0000 -39.5474
v  -46.7001 6.2344 -39.5474
v  -57.3200 0.0000 -21.1531
v  -57.3200 6.2344 -21.1531
v  -61.0083 0.0000 -0.2358
v  -61.0083 6.2344 -0.2358
v  -57.3200 0.0000 20.6814
v  -57.3200 6.2344 20.6814
v  -46.7001 0.0000 39.0757
v  -46.7001 6.2344 39.0757
v  -30.4294 0.0000 52.7285
v  -30.4294 6.2344 52.7285
v  -10.4704 0.0000 59.9929
v  -10.4704 6.2344 59.9929
v  10.7695 0.0000 59.9930
v  10.7695 6.2344 59.9930
v  30.7285 0.0000 52.7285
v  30.7285 6.2344 52.7285
v  46.9992 0.0000 39.0757
v  46.9992 6.2344 39.0757
v  57.6192 0.0000 20.6814
v  57.6192 6.2344 20.6814
v  30.7285 0.0000 -0.2358
v  28.8844 0.0000 -10.6944
v  23.5744 0.0000 -19.8916
v  15.4391 0.0000 -26.7180
v  12.9587 -0.0000 -45.1032
v  8.0609 0.0000 -45.1032
v  12.9587 0.0000 -27.6207
v  -7.7618 0.0000 -45.1032
v  -13.9474 -0.0000 -45.1032
v  -13.9474 0.0000 -27.1520
v  -15.1399 0.0000 -26.7180
v  -23.2753 0.0000 -19.8916
v  -28.5852 0.0000 -10.6944
v  -30.4294 0.0000 -0.2358
v  -28.5852 0.0000 10.2228
v  -23.2753 0.0000 19.4199
v  -15.1399 0.0000 26.2463
v  -8.1085 0.0000 46.5978
v  8.4076 0.0000 46.5978
v  12.9587 -0.0000 46.5978
v  12.9587 0.0000 27.1491
v  15.4390 0.0000 26.2463
v  23.5744 0.0000 19.4200
v  28.8844 0.0000 10.2228
v  12.9587 0.0000 -0.2358
v  12.9587 0.0000 -4.8980
v  12.9587 0.0000 -10.9840
v  12.9587 0.0000 -22.4219
v  -13.9474 0.0000 -24.6525
v  -13.9474 0.0000 -12.0646
v  -13.9474 0.0000 -5.3667
v  -13.9474 0.0000 -0.2358
v  -13.9474 0.0000 4.8951
v  -13.9474 0.0000 11.5929
v  -13.9474 0.0000 24.1808
v  -13.9474 0.0000 26.6804
v  12.9587 0.0000 21.9503
v  12.9587 0.0000 10.5124
v  12.9587 0.0000 4.4263
v  28.8844 6.2344 -10.6944
v  30.7285 6.2344 -0.2358
v  23.5744 6.2344 -19.8916
v  15.4391 6.2344 -26.7180
v  -7.7618 6.2344 -45.1032
v  8.0609 6.2344 -45.1032
v  -13.9474 6.2344 -45.1032
v  -15.1399 6.2344 -26.7180
v  -13.9474 6.2344 -27.1520
v  -23.2753 6.2344 -19.8916
v  -28.5852 6.2344 -10.6944
v  -30.4294 6.2344 -0.2358
v  -28.5852 6.2344 10.2228
v  -23.2753 6.2344 19.4199
v  -15.1399 6.2344 26.2463
v  -8.1085 6.2344 46.5978
v  -13.9474 6.2344 46.5978
v  8.4076 6.2344 46.5978
v  23.5744 6.2344 19.4200
v  15.4390 6.2344 26.2463
v  28.8844 6.2344 10.2228
v  12.9587 6.2344 -4.8980
v  12.9587 6.2344 -0.2358
v  12.9587 6.2344 -10.9840
v  12.9587 6.2344 -22.4219
v  -13.9474 6.2344 -12.0646
v  -13.9474 6.2344 -24.6525
v  -13.9474 6.2344 -5.3667
v  -13.9474 6.2344 -0.2358
v  -13.9474 6.2344 4.8951
v  -13.9474 6.2344 11.5929
v  -13.9474 6.2344 24.1808
v  12.9587 6.2344 27.1491
v  12.9587 6.2344 21.9503
v  12.9587 6.2344 10.5124
v  12.9587 6.2344 4.4263
v  12.9587 6.2344 46.5978
v  12.9587 6.2344 -45.1032
v  12.9587 6.2344 -27.6207
v  -13.9474 6.2344 26.6804
v  12.9587 4.1198 -45.1032
v  -13.9474 4.1198 -45.1032
v  -13.9474 4.1198 46.5978
v  12.9587 4.1198 46.5978
v  -13.9474 0.0000 46.5978
v  12.9587 2.2636 -45.1032
v  12.9587 2.2636 46.5978
v  -13.9474 2.2636 46.5978
v  -13.9474 2.2636 -45.1032
v  0.1493 -1.1702 -69.3656
v  0.1493 7.6892 -69.3656
v  20.4286 7.6892 -66.3090
v  20.4286 -1.1702 -66.3090
v  0.1493 7.6892 -59.1736
v  17.4245 7.6892 -56.5698
v  0.1493 -1.1702 -59.1736
v  17.4245 -1.1702 -56.5698
v  38.9060 7.6892 -57.4108
v  38.9060 -1.1702 -57.4108
v  33.1646 7.6892 -48.9898
v  33.1646 -1.1702 -48.9898
v  53.9397 7.6892 -43.4615
v  53.9397 -1.1702 -43.4615
v  45.9713 7.6892 -37.1069
v  45.9713 -1.1702 -37.1069
v  64.1938 7.6892 -25.7008
v  64.1938 -1.1702 -25.7008
v  54.7064 7.6892 -21.9772
v  54.7064 -1.1702 -21.9772
v  68.7574 7.6892 -5.7066
v  68.7574 -1.1702 -5.7066
v  58.5939 7.6892 -4.9450
v  58.5939 -1.1702 -4.9450
v  67.2248 7.6892 14.7444
v  67.2248 -1.1702 14.7444
v  57.2883 7.6892 12.4764
v  57.2883 -1.1702 12.4764
v  59.7322 7.6892 33.8350
v  59.7322 -1.1702 33.8350
v  50.9057 7.6892 28.7390
v  50.9057 -1.1702 28.7390
v  46.9455 7.6892 49.8691
v  46.9455 -1.1702 49.8691
v  40.0132 7.6892 42.3979
v  40.0132 -1.1702 42.3979
v  30.0007 7.6892 61.4219
v  30.0007 -1.1702 61.4219
v  25.5786 7.6892 52.2392
v  25.5786 -1.1702 52.2392
v  10.4035 7.6892 67.4668
v  10.4035 -1.1702 67.4668
v  8.8844 7.6892 57.3887
v  8.8844 -1.1702 57.3887
v  -10.1049 7.6892 67.4668
v  -10.1049 -1.1702 67.4668
v  -8.5858 7.6892 57.3886
v  -8.5858 -1.1702 57.3886
v  -29.7021 7.6892 61.4219
v  -29.7021 -1.1702 61.4219
v  -25.2799 7.6892 52.2392
v  -25.2799 -1.1702 52.2392
v  -46.6469 7.6892 49.8691
v  -46.6469 -1.1702 49.8691
v  -39.7146 7.6892 42.3978
v  -39.7146 -1.1702 42.3978
v  -59.4336 7.6892 33.8350
v  -59.4336 -1.1702 33.8350
v  -50.6071 7.6892 28.7390
v  -50.6071 -1.1702 28.7390
v  -66.9261 7.6892 14.7443
v  -66.9261 -1.1702 14.7443
v  -56.9897 7.6892 12.4764
v  -56.9897 -1.1702 12.4764
v  -68.4587 7.6892 -5.7067
v  -68.4587 -1.1702 -5.7067
v  -58.2952 7.6892 -4.9450
v  -58.2952 -1.1702 -4.9450
v  -63.8952 7.6892 -25.7008
v  -63.8952 -1.1702 -25.7008
v  -54.4077 7.6892 -21.9773
v  -54.4077 -1.1702 -21.9773
v  -53.6410 7.6892 -43.4616
v  -53.6410 -1.1702 -43.4616
v  -45.6726 7.6892 -37.1070
v  -45.6726 -1.1702 -37.1070
v  -38.6073 7.6892 -57.4108
v  -38.6073 -1.1702 -57.4108
v  -32.8660 7.6892 -48.9898
v  -32.8660 -1.1702 -48.9898
v  -20.1299 7.6892 -66.3090
v  -20.1299 -1.1702 -66.3090
v  -17.1258 7.6892 -56.5698
v  -17.1258 -1.1702 -56.5698
# 208 vertices

vn 1.0000 0.0000 0.0000
vn 0.9397 0.0000 -0.3420
vn 0.7660 0.0000 -0.6428
vn 0.5000 0.0000 -0.8660
vn 0.1736 0.0000 -0.9848
vn -0.1736 0.0000 -0.9848
vn -0.5000 0.0000 -0.8660
vn -0.7660 0.0000 -0.6428
vn -0.9397 0.0000 -0.3420
vn -1.0000 0.0000 -0.0000
vn -0.9397 0.0000 0.3420
vn -0.7660 0.0000 0.6428
vn -0.5000 0.0000 0.8660
vn -0.1736 0.0000 0.9848
vn 0.1736 0.0000 0.9848
vn 0.5000 0.0000 0.8660
vn 0.7660 0.0000 0.6428
vn 0.9397 0.0000 0.3420
vn 0.0000 -1.0000 -0.0000
vn 0.0000 -1.0000 0.0000
vn -0.0000 -1.0000 -0.0000
vn -0.0000 -1.0000 0.0000
vn 0.0000 1.0000 -0.0000
vn 0.0000 0.0000 1.0000
vn 1.0000 0.0000 -0.0000
vn 0.0000 0.0000 -1.0000
vn -0.0000 0.0000 -1.0000
vn 0.2948 0.0000 -0.9556
vn -0.0000 0.0000 1.0000
vn -0.2948 0.0000 0.9556
vn 0.5633 0.0000 -0.8262
vn -0.5633 0.0000 0.8262
vn 0.7818 0.0000 -0.6235
vn -0.7818 0.0000 0.6235
vn 0.9309 0.0000 -0.3653
vn -0.9309 0.0000 0.3653
vn 0.9972 0.0000 -0.0747
vn -0.9972 0.0000 0.0747
vn 0.9749 0.0000 0.2225
vn -0.9749 0.0000 -0.2225
vn 0.8660 0.0000 0.5000
vn -0.8660 0.0000 -0.5000
vn 0.6802 0.0000 0.7331
vn -0.6802 0.0000 -0.7331
vn 0.4339 0.0000 0.9010
vn -0.4339 0.0000 -0.9010
vn 0.1490 0.0000 0.9888
vn -0.1490 0.0000 -0.9888
vn -0.1490 0.0000 0.9888
vn 0.1490 0.0000 -0.9888
vn -0.4339 0.0000 0.9010
vn 0.4339 0.0000 -0.9010
vn -0.6802 0.0000 0.7331
vn 0.6802 0.0000 -0.7331
vn -0.8660 0.0000 0.5000
vn 0.8660 0.0000 -0.5000
vn -0.9749 0.0000 0.2225
vn 0.9749 0.0000 -0.2225
vn -0.9972 0.0000 -0.0747
vn 0.9972 0.0000 0.0747
vn -0.9309 0.0000 -0.3653
vn 0.9309 0.0000 0.3653
vn -0.7818 0.0000 -0.6235
vn 0.7818 0.0000 0.6235
vn -0.5633 0.0000 -0.8262
vn 0.5633 0.0000 0.8262
vn -0.2948 0.0000 -0.9556
vn 0.2948 0.0000 0.9556
# 68 vertex normals

vt 0.7500 0.0000 1.0000
vt 0.8056 0.0000 1.0000
vt 0.8056 1.0000 1.0000
vt 0.7500 1.0000 1.0000
vt 0.8611 0.0000 1.0000
vt 0.8611 1.0000 1.0000
vt 0.9167 0.0000 1.0000
vt 0.9167 1.0000 1.0000
vt 0.9722 0.0000 1.0000
vt 0.9722 1.0000 1.0000
vt 1.0278 0.0000 1.0000
vt 1.0278 1.0000 1.0000
vt 0.0278 0.0000 1.0000
vt 0.0833 0.0000 1.0000
vt 0.0833 1.0000 1.0000
vt 0.0278 1.0000 1.0000
vt 0.1389 0.0000 1.0000
vt 0.1389 1.0000 1.0000
vt 0.1944 0.0000 1.0000
vt 0.1944 1.0000 1.0000
vt 0.2500 0.0000 1.0000
vt 0.2500 1.0000 1.0000
vt 0.3056 0.0000 1.0000
vt 0.3056 1.0000 1.0000
vt 0.3611 0.0000 1.0000
vt 0.3611 1.0000 1.0000
vt 0.4167 0.0000 1.0000
vt 0.4167 1.0000 1.0000
vt 0.4722 0.0000 1.0000
vt 0.4722 1.0000 1.0000
vt 0.5278 0.0000 1.0000
vt 0.5278 1.0000 1.0000
vt 0.5833 0.0000 1.0000
vt 0.5833 1.0000 1.0000
vt 0.6389 0.0000 1.0000
vt 0.6389 1.0000 1.0000
vt 0.6944 0.0000 1.0000
vt 0.6944 1.0000 1.0000
vt 0.3290 0.9698 -0.2500
vt 0.5000 1.0000 -0.2500
vt 0.5000 0.7500 -0.2500
vt 0.4145 0.7349 -0.2500
vt 0.1786 0.8830 -0.2500
vt 0.3393 0.6915 -0.2500
vt 0.0670 0.7500 -0.2500
vt 0.2835 0.6250 -0.2500
vt 0.1332 0.6047 -0.2500
vt 0.1332 0.5647 -0.2500
vt 0.0076 0.5868 -0.2500
vt 0.2761 0.6047 -0.2500
vt 0.1332 0.4353 -0.2500
vt 0.0076 0.4132 -0.2500
vt 0.1332 0.3847 -0.2500
vt 0.0670 0.2500 -0.2500
vt 0.2799 0.3847 -0.2500
vt 0.2835 0.3750 -0.2500
vt 0.1786 0.1170 -0.2500
vt 0.3393 0.3085 -0.2500
vt 0.3290 0.0302 -0.2500
vt 0.4145 0.2651 -0.2500
vt 0.5000 0.0000 -0.2500
vt 0.5000 0.2500 -0.2500
vt 0.6710 0.0302 -0.2500
vt 0.5855 0.2651 -0.2500
vt 0.8214 0.1170 -0.2500
vt 0.6607 0.3085 -0.2500
vt 0.9330 0.2500 -0.2500
vt 0.7165 0.3750 -0.2500
vt 0.8829 0.4325 -0.2500
vt 0.8829 0.5675 -0.2500
vt 0.9924 0.5868 -0.2500
vt 0.9924 0.4132 -0.2500
vt 0.8829 0.6047 -0.2500
vt 0.9330 0.7500 -0.2500
vt 0.7239 0.6047 -0.2500
vt 0.7165 0.6250 -0.2500
vt 0.8214 0.8830 -0.2500
vt 0.6607 0.6915 -0.2500
vt 0.6710 0.9698 -0.2500
vt 0.5855 0.7349 -0.2500
vt 0.5000 0.6047 -0.2500
vt 0.4619 0.6047 -0.2500
vt 0.4121 0.6047 -0.2500
vt 0.3186 0.6047 -0.2500
vt 0.3004 0.3847 -0.2500
vt 0.4033 0.3847 -0.2500
vt 0.4581 0.3847 -0.2500
vt 0.5000 0.3847 -0.2500
vt 0.5419 0.3847 -0.2500
vt 0.5967 0.3847 -0.2500
vt 0.6996 0.3847 -0.2500
vt 0.7201 0.3847 -0.2500
vt 0.6814 0.6047 -0.2500
vt 0.5879 0.6047 -0.2500
vt 0.5381 0.6047 -0.2500
vt 0.5000 1.0000 0.2500
vt 0.3290 0.9698 0.2500
vt 0.4145 0.7349 0.2500
vt 0.5000 0.7500 0.2500
vt 0.1786 0.8830 0.2500
vt 0.3393 0.6915 0.2500
vt 0.0670 0.7500 0.2500
vt 0.2835 0.6250 0.2500
vt 0.0076 0.4132 0.2500
vt 0.1332 0.4353 0.2500
vt 0.1332 0.5647 0.2500
vt 0.0076 0.5868 0.2500
vt 0.1332 0.3847 0.2500
vt 0.0670 0.2500 0.2500
vt 0.2835 0.3750 0.2500
vt 0.2799 0.3847 0.2500
vt 0.1786 0.1170 0.2500
vt 0.3393 0.3085 0.2500
vt 0.3290 0.0302 0.2500
vt 0.4145 0.2651 0.2500
vt 0.5000 0.0000 0.2500
vt 0.5000 0.2500 0.2500
vt 0.6710 0.0302 0.2500
vt 0.5855 0.2651 0.2500
vt 0.8214 0.1170 0.2500
vt 0.6607 0.3085 0.2500
vt 0.9330 0.2500 0.2500
vt 0.7165 0.3750 0.2500
vt 0.9924 0.4132 0.2500
vt 0.8829 0.4325 0.2500
vt 0.8829 0.3847 0.2500
vt 0.9924 0.5868 0.2500
vt 0.8829 0.5675 0.2500
vt 0.9330 0.7500 0.2500
vt 0.8214 0.8830 0.2500
vt 0.6607 0.6915 0.2500
vt 0.7165 0.6250 0.2500
vt 0.6710 0.9698 0.2500
vt 0.5855 0.7349 0.2500
vt 0.4619 0.6047 0.2500
vt 0.5000 0.6047 0.2500
vt 0.4121 0.6047 0.2500
vt 0.3186 0.6047 0.2500
vt 0.4033 0.3847 0.2500
vt 0.3004 0.3847 0.2500
vt 0.4581 0.3847 0.2500
vt 0.5000 0.3847 0.2500
vt 0.5419 0.3847 0.2500
vt 0.5967 0.3847 0.2500
vt 0.6996 0.3847 0.2500
vt 0.7239 0.6047 0.2500
vt 0.6814 0.6047 0.2500
vt 0.5879 0.6047 0.2500
vt 0.5381 0.6047 0.2500
vt 0.8829 0.6047 0.2500
vt 0.1332 0.6047 0.2500
vt 0.2761 0.6047 0.2500
vt 0.7201 0.3847 0.2500
vt 0.0000 1.0000 0.0000
vt 1.0000 1.0000 0.0000
vt 1.0000 0.0000 0.0000
vt 0.0000 0.0000 0.0000
vt 0.8094 0.2302 0.0000
vt 1.0000 0.2302 0.0000
vt 0.0000 0.2302 0.0000
vt 0.2121 0.2302 0.0000
vt 0.2688 0.2302 0.0000
vt 0.3935 0.2302 0.0000
vt 0.4599 0.2302 0.0000
vt 0.5107 0.2302 0.0000
vt 0.5616 0.2302 0.0000
vt 0.6279 0.2302 0.0000
vt 0.7527 0.2302 0.0000
vt 0.7701 0.2302 0.0000
vt 0.1820 0.2302 0.0000
vt 0.1958 0.2302 0.0000
vt 0.2230 0.2302 0.0000
vt 0.3603 0.2302 0.0000
vt 0.4333 0.2302 0.0000
vt 0.4893 0.2302 0.0000
vt 0.5452 0.2302 0.0000
vt 0.6183 0.2302 0.0000
vt 0.7555 0.2302 0.0000
vt 0.7828 0.2302 0.0000
vt 0.8309 0.2302 0.0000
vt 0.2170 0.2302 0.0000
vt 0.8829 0.3847 -0.2500
vt 1.0000 0.7536 0.0000
vt 0.7701 0.7536 0.0000
vt 0.1820 0.7536 0.0000
vt 0.0000 0.7536 0.0000
vt 0.1958 0.7536 0.0000
vt 0.7828 0.7536 0.0000
vt 0.7555 0.7536 0.0000
vt 0.6183 0.7536 0.0000
vt 0.5452 0.7536 0.0000
vt 0.4893 0.7536 0.0000
vt 0.4333 0.7536 0.0000
vt 0.3603 0.7536 0.0000
vt 0.2230 0.7536 0.0000
vt 0.2170 0.7536 0.0000
vt 0.8309 0.7536 0.0000
vt 0.2121 0.7536 0.0000
vt 0.2688 0.7536 0.0000
vt 0.8094 0.7536 0.0000
vt 0.7527 0.7536 0.0000
vt 0.6279 0.7536 0.0000
vt 0.5616 0.7536 0.0000
vt 0.5107 0.7536 0.0000
vt 0.4599 0.7536 0.0000
vt 0.3935 0.7536 0.0000
vt 0.2500 0.0000 0.0000
vt 0.2500 0.0476 0.0000
vt 0.0000 0.0476 0.0000
vt 0.5000 0.0000 0.0000
vt 0.5000 0.0476 0.0000
vt 0.7500 0.0000 0.0000
vt 0.7500 0.0476 0.0000
vt 1.0000 0.0476 0.0000
vt 0.2500 0.0952 0.0000
vt 0.0000 0.0952 0.0000
vt 0.5000 0.0952 0.0000
vt 0.7500 0.0952 0.0000
vt 1.0000 0.0952 0.0000
vt 0.2500 0.1429 0.0000
vt 0.0000 0.1429 0.0000
vt 0.5000 0.1429 0.0000
vt 0.7500 0.1429 0.0000
vt 1.0000 0.1429 0.0000
vt 0.2500 0.1905 0.0000
vt 0.0000 0.1905 0.0000
vt 0.5000 0.1905 0.0000
vt 0.7500 0.1905 0.0000
vt 1.0000 0.1905 0.0000
vt 0.2500 0.2381 0.0000
vt 0.0000 0.2381 0.0000
vt 0.5000 0.2381 0.0000
vt 0.7500 0.2381 0.0000
vt 1.0000 0.2381 0.0000
vt 0.2500 0.2857 0.0000
vt 0.0000 0.2857 0.0000
vt 0.5000 0.2857 0.0000
vt 0.7500 0.2857 0.0000
vt 1.0000 0.2857 0.0000
vt 0.2500 0.3333 0.0000
vt 0.0000 0.3333 0.0000
vt 0.5000 0.3333 0.0000
vt 0.7500 0.3333 0.0000
vt 1.0000 0.3333 0.0000
vt 0.2500 0.3810 0.0000
vt 0.0000 0.3810 0.0000
vt 0.5000 0.3810 0.0000
vt 0.7500 0.3810 0.0000
vt 1.0000 0.3810 0.0000
vt 0.2500 0.4286 0.0000
vt 0.0000 0.4286 0.0000
vt 0.5000 0.4286 0.0000
vt 0.7500 0.4286 0.0000
vt 1.0000 0.4286 0.0000
vt 0.2500 0.4762 0.0000
vt 0.0000 0.4762 0.0000
vt 0.5000 0.4762 0.0000
vt 0.7500 0.4762 0.0000
vt 1.0000 0.4762 0.0000
vt 0.2500 0.5238 0.0000
vt 0.0000 0.5238 0.0000
vt 0.5000 0.5238 0.0000
vt 0.7500 0.5238 0.0000
vt 1.0000 0.5238 0.0000
vt 0.2500 0.5714 0.0000
vt 0.0000 0.5714 0.0000
vt 0.5000 0.5714 0.0000
vt 0.7500 0.5714 0.0000
vt 1.0000 0.5714 0.0000
vt 0.2500 0.6190 0.0000
vt 0.0000 0.6190 0.0000
vt 0.5000 0.6190 0.0000
vt 0.7500 0.6190 0.0000
vt 1.0000 0.6190 0.0000
vt 0.2500 0.6667 0.0000
vt 0.0000 0.6667 0.0000
vt 0.5000 0.6667 0.0000
vt 0.7500 0.6667 0.0000
vt 1.0000 0.6667 0.0000
vt 0.2500 0.7143 0.0000
vt 0.0000 0.7143 0.0000
vt 0.5000 0.7143 0.0000
vt 0.7500 0.7143 0.0000
vt 1.0000 0.7143 0.0000
vt 0.2500 0.7619 0.0000
vt 0.0000 0.7619 0.0000
vt 0.5000 0.7619 0.0000
vt 0.7500 0.7619 0.0000
vt 1.0000 0.7619 0.0000
vt 0.2500 0.8095 0.0000
vt 0.0000 0.8095 0.0000
vt 0.5000 0.8095 0.0000
vt 0.7500 0.8095 0.0000
vt 1.0000 0.8095 0.0000
vt 0.2500 0.8571 0.0000
vt 0.0000 0.8571 0.0000
vt 0.5000 0.8571 0.0000
vt 0.7500 0.8571 0.0000
vt 1.0000 0.8571 0.0000
vt 0.2500 0.9048 0.0000
vt 0.0000 0.9048 0.0000
vt 0.5000 0.9048 0.0000
vt 0.7500 0.9048 0.0000
vt 1.0000 0.9048 0.0000
vt 0.2500 0.9524 0.0000
vt 0.0000 0.9524 0.0000
vt 0.5000 0.9524 0.0000
vt 0.7500 0.9524 0.0000
vt 1.0000 0.9524 0.0000
vt 0.2500 1.0000 0.0000
vt 0.5000 1.0000 0.0000
vt 0.7500 1.0000 0.0000
# 312 texture coords

g Cylinder001
usemtl wire_228214153
s 8
f 1/1/1 2/2/2 3/3/2 4/4/1 
f 2/2/2 5/5/3 6/6/3 3/3/2 
f 5/5/3 7/7/4 8/8/4 6/6/3 
f 7/7/4 9/9/5 10/10/5 8/8/4 
f 9/9/5 11/11/6 12/12/6 10/10/5 
f 11/13/6 13/14/7 14/15/7 12/16/6 
f 13/14/7 15/17/8 16/18/8 14/15/7 
f 15/17/8 17/19/9 18/20/9 16/18/8 
f 17/19/9 19/21/10 20/22/10 18/20/9 
f 19/21/10 21/23/11 22/24/11 20/22/10 
f 21/23/11 23/25/12 24/26/12 22/24/11 
f 23/25/12 25/27/13 26/28/13 24/26/12 
f 25/27/13 27/29/14 28/30/14 26/28/13 
f 27/29/14 29/31/15 30/32/15 28/30/14 
f 29/31/15 31/33/16 32/34/16 30/32/15 
f 31/33/16 33/35/17 34/36/17 32/34/16 
f 33/35/17 35/37/18 36/38/18 34/36/17 
f 35/37/18 1/1/1 4/4/1 36/38/18 
s 1
f 2/39/19 1/40/19 37/41/19 38/42/19 
f 5/43/19 2/39/19 38/42/19 39/44/19 
f 7/45/19 5/43/19 39/44/19 40/46/20 
f 41/47/21 42/48/21 9/49/21 7/45/19 
f 41/47/21 7/45/19 40/46/20 43/50/22 
f 9/49/21 42/48/21 44/51/19 11/52/19 
f 11/52/19 44/51/19 45/53/19 13/54/21 
f 45/53/19 46/55/20 47/56/22 13/54/21 
f 15/57/19 13/54/21 47/56/22 48/58/19 
f 17/59/19 15/57/19 48/58/19 49/60/19 
f 19/61/19 17/59/19 49/60/19 50/62/19 
f 21/63/19 19/61/19 50/62/19 51/64/19 
f 23/65/19 21/63/19 51/64/19 52/66/19 
f 25/67/19 23/65/19 52/66/19 53/68/19 
f 54/69/19 55/70/22 29/71/22 27/72/19 
f 29/71/22 55/70/22 56/73/22 31/74/20 
f 56/73/22 57/75/21 58/76/19 31/74/20 
f 33/77/19 31/74/20 58/76/19 59/78/19 
f 35/79/19 33/77/19 59/78/19 60/80/19 
f 1/40/19 35/79/19 60/80/19 37/41/19 
f 37/41/19 61/81/19 62/82/19 38/42/19 
f 62/82/19 63/83/19 39/44/19 38/42/19 
f 39/44/19 63/83/19 64/84/19 40/46/20 
f 47/56/22 46/55/20 65/85/19 
f 65/85/19 66/86/19 48/58/19 47/56/22 
f 49/60/19 48/58/19 66/86/19 67/87/19 
f 67/87/19 68/88/19 50/62/19 49/60/19 
f 50/62/19 68/88/19 69/89/19 51/64/19 
f 69/89/19 70/90/19 52/66/19 51/64/19 
f 52/66/19 70/90/19 71/91/19 53/68/19 
f 72/92/19 53/68/19 71/91/19 
f 58/76/19 57/75/21 73/93/19 
f 73/93/19 74/94/19 59/78/19 58/76/19 
f 60/80/19 59/78/19 74/94/19 75/95/19 
f 61/81/19 37/41/19 60/80/19 75/95/19 
f 4/96/23 3/97/23 76/98/23 77/99/23 
f 3/97/23 6/100/23 78/101/23 76/98/23 
f 6/100/23 8/102/23 79/103/23 78/101/23 
f 12/104/23 80/105/23 81/106/23 10/107/23 
f 82/108/23 14/109/23 83/110/23 84/111/23 
f 14/109/23 16/112/23 85/113/23 83/110/23 
f 16/112/23 18/114/23 86/115/23 85/113/23 
f 18/114/23 20/116/23 87/117/23 86/115/23 
f 20/116/23 22/118/23 88/119/23 87/117/23 
f 22/118/23 24/120/23 89/121/23 88/119/23 
f 24/120/23 26/122/23 90/123/23 89/121/23 
f 28/124/23 91/125/23 92/126/23 26/122/23 
f 91/125/23 28/124/23 30/127/23 93/128/23 
f 32/129/23 34/130/23 94/131/23 95/132/23 
f 34/130/23 36/133/23 96/134/23 94/131/23 
f 36/133/23 4/96/23 77/99/23 96/134/23 
f 77/99/23 76/98/23 97/135/23 98/136/23 
f 97/135/23 76/98/23 78/101/23 99/137/23 
f 99/137/23 78/101/23 79/103/23 100/138/23 
f 85/113/23 101/139/23 102/140/23 83/110/23 
f 101/139/23 85/113/23 86/115/23 103/141/23 
f 103/141/23 86/115/23 87/117/23 104/142/23 
f 104/142/23 87/117/23 88/119/23 105/143/23 
f 105/143/23 88/119/23 89/121/23 106/144/23 
f 106/144/23 89/121/23 90/123/23 107/145/23 
f 108/146/23 95/132/23 109/147/23 
f 109/147/23 95/132/23 94/131/23 110/148/23 
f 110/148/23 94/131/23 96/134/23 111/149/23 
f 98/136/23 111/149/23 96/134/23 77/99/23 
f 112/150/23 32/129/23 95/132/23 108/146/23 
f 113/151/23 8/102/23 10/107/23 81/106/23 
f 100/138/23 79/103/23 114/152/23 
f 84/111/23 83/110/23 102/140/23 
f 107/145/23 90/123/23 115/153/23 
s 2
f 116/154/23 117/155/23 118/156/23 119/157/23 
s 16
f 114/158/10 113/159/10 116/156/10 119/157/10 
f 119/157/10 112/160/10 108/161/10 109/162/10 
f 119/157/10 109/162/10 110/163/10 111/164/10 
f 119/157/10 111/164/10 98/165/10 97/166/10 
f 119/157/10 97/166/10 99/167/10 100/168/10 
f 114/158/10 119/157/10 100/168/10 
s 32
f 80/169/24 82/159/24 117/156/24 81/170/24 
f 113/160/24 81/170/24 117/156/24 116/157/24 
s 64
f 117/157/25 82/160/25 84/171/25 118/156/25 
f 118/156/25 84/171/25 102/172/25 101/173/25 
f 118/156/25 101/173/25 103/174/25 104/175/25 
f 118/156/25 104/175/25 105/176/25 106/177/25 
f 118/156/25 106/177/25 107/178/25 115/179/25 
f 118/156/25 115/179/25 92/159/25 
s 8
f 93/180/26 112/159/26 119/156/26 91/181/26 
f 91/181/26 119/156/26 118/157/26 92/160/26 
s 1
f 12/104/23 14/109/23 82/108/23 80/105/23 
f 90/123/23 26/122/23 92/126/23 115/153/23 
f 93/128/23 30/127/23 32/129/23 112/150/23 
f 113/151/23 114/152/23 79/103/23 8/102/23 
f 120/182/19 54/69/19 27/72/19 25/67/19 
f 120/182/19 25/67/19 53/68/19 72/92/19 
f 43/50/22 40/46/20 64/84/19 
s 4
f 121/155/19 122/156/19 123/157/19 124/154/19 
s 32
f 124/155/24 45/183/24 44/184/24 42/185/24 
f 124/155/24 42/185/24 41/186/24 121/154/24 
s 64
f 46/187/25 45/186/25 124/154/25 123/155/25 
f 123/155/25 120/183/25 72/188/25 71/189/25 
f 123/155/25 71/189/25 70/190/25 69/191/25 
f 123/155/25 69/191/25 68/192/25 67/193/25 
f 123/155/25 67/193/25 66/194/25 65/195/25 
f 46/187/25 123/155/25 65/195/25 
s 8
f 54/196/26 120/186/26 123/154/26 122/155/26 
f 122/155/26 56/183/26 55/197/26 54/196/26 
s 16
f 57/198/10 56/186/10 122/154/10 73/199/10 
f 121/155/10 41/183/10 43/200/10 122/154/10 
f 122/154/10 43/200/10 64/201/10 63/202/10 
f 122/154/10 63/202/10 62/203/10 61/204/10 
f 122/154/10 61/204/10 75/205/10 74/206/10 
f 122/154/10 74/206/10 73/199/10 
s 2
f 125/157/27 126/207/27 127/208/28 128/209/28 
s 4
f 126/207/23 129/210/23 130/211/23 127/208/23 
s 2
f 129/210/29 131/212/29 132/213/30 130/211/30 
s 4
f 131/212/19 125/156/19 128/214/19 132/213/19 
s 2
f 128/209/28 127/208/28 133/215/31 134/216/31 
s 4
f 127/208/23 130/211/23 135/217/23 133/215/23 
s 2
f 130/211/30 132/213/30 136/218/32 135/217/32 
s 4
f 132/213/19 128/214/19 134/219/19 136/218/19 
s 2
f 134/216/31 133/215/31 137/220/33 138/221/33 
s 4
f 133/215/23 135/217/23 139/222/23 137/220/23 
s 2
f 135/217/32 136/218/32 140/223/34 139/222/34 
s 4
f 136/218/19 134/219/19 138/224/19 140/223/19 
s 2
f 138/221/33 137/220/33 141/225/35 142/226/35 
s 4
f 137/220/23 139/222/23 143/227/23 141/225/23 
s 2
f 139/222/34 140/223/34 144/228/36 143/227/36 
s 4
f 140/223/19 138/224/19 142/229/19 144/228/19 
s 2
f 142/226/35 141/225/35 145/230/37 146/231/37 
s 4
f 141/225/23 143/227/23 147/232/23 145/230/23 
s 2
f 143/227/36 144/228/36 148/233/38 147/232/38 
s 4
f 144/228/19 142/229/19 146/234/19 148/233/19 
s 2
f 146/231/37 145/230/37 149/235/39 150/236/39 
s 4
f 145/230/23 147/232/23 151/237/23 149/235/23 
s 2
f 147/232/38 148/233/38 152/238/40 151/237/40 
s 4
f 148/233/19 146/234/19 150/239/19 152/238/19 
s 2
f 150/236/39 149/235/39 153/240/41 154/241/41 
s 4
f 149/235/23 151/237/23 155/242/23 153/240/23 
s 2
f 151/237/40 152/238/40 156/243/42 155/242/42 
s 4
f 152/238/19 150/239/19 154/244/19 156/243/19 
s 2
f 154/241/41 153/240/41 157/245/43 158/246/43 
s 4
f 153/240/23 155/242/23 159/247/23 157/245/23 
s 2
f 155/242/42 156/243/42 160/248/44 159/247/44 
s 4
f 156/243/19 154/244/19 158/249/19 160/248/19 
s 2
f 158/246/43 157/245/43 161/250/45 162/251/45 
s 4
f 157/245/23 159/247/23 163/252/23 161/250/23 
s 2
f 159/247/44 160/248/44 164/253/46 163/252/46 
s 4
f 160/248/19 158/249/19 162/254/19 164/253/19 
s 2
f 162/251/45 161/250/45 165/255/47 166/256/47 
s 4
f 161/250/23 163/252/23 167/257/23 165/255/23 
s 2
f 163/252/46 164/253/46 168/258/48 167/257/48 
s 4
f 164/253/19 162/254/19 166/259/19 168/258/19 
s 2
f 166/256/47 165/255/47 169/260/49 170/261/49 
s 4
f 165/255/23 167/257/23 171/262/23 169/260/23 
s 2
f 167/257/48 168/258/48 172/263/50 171/262/50 
s 4
f 168/258/19 166/259/19 170/264/19 172/263/19 
s 2
f 170/261/49 169/260/49 173/265/51 174/266/51 
s 4
f 169/260/23 171/262/23 175/267/23 173/265/23 
s 2
f 171/262/50 172/263/50 176/268/52 175/267/52 
s 4
f 172/263/19 170/264/19 174/269/19 176/268/19 
s 2
f 174/266/51 173/265/51 177/270/53 178/271/53 
s 4
f 173/265/23 175/267/23 179/272/23 177/270/23 
s 2
f 175/267/52 176/268/52 180/273/54 179/272/54 
s 4
f 176/268/19 174/269/19 178/274/19 180/273/19 
s 2
f 178/271/53 177/270/53 181/275/55 182/276/55 
s 4
f 177/270/23 179/272/23 183/277/23 181/275/23 
s 2
f 179/272/54 180/273/54 184/278/56 183/277/56 
s 4
f 180/273/19 178/274/19 182/279/19 184/278/19 
s 2
f 182/276/55 181/275/55 185/280/57 186/281/57 
s 4
f 181/275/23 183/277/23 187/282/23 185/280/23 
s 2
f 183/277/56 184/278/56 188/283/58 187/282/58 
s 4
f 184/278/19 182/279/19 186/284/19 188/283/19 
s 2
f 186/281/57 185/280/57 189/285/59 190/286/59 
s 4
f 185/280/23 187/282/23 191/287/23 189/285/23 
s 2
f 187/282/58 188/283/58 192/288/60 191/287/60 
s 4
f 188/283/19 186/284/19 190/289/19 192/288/19 
s 2
f 190/286/59 189/285/59 193/290/61 194/291/61 
s 4
f 189/285/23 191/287/23 195/292/23 193/290/23 
s 2
f 191/287/60 192/288/60 196/293/62 195/292/62 
s 4
f 192/288/19 190/289/19 194/294/19 196/293/19 
s 2
f 194/291/61 193/290/61 197/295/63 198/296/63 
s 4
f 193/290/23 195/292/23 199/297/23 197/295/23 
s 2
f 195/292/62 196/293/62 200/298/64 199/297/64 
s 4
f 196/293/19 194/294/19 198/299/19 200/298/19 
s 2
f 198/296/63 197/295/63 201/300/65 202/301/65 
s 4
f 197/295/23 199/297/23 203/302/23 201/300/23 
s 2
f 199/297/64 200/298/64 204/303/66 203/302/66 
s 4
f 200/298/19 198/299/19 202/304/19 204/303/19 
s 2
f 202/301/65 201/300/65 205/305/67 206/306/67 
s 4
f 201/300/23 203/302/23 207/307/23 205/305/23 
s 2
f 203/302/66 204/303/66 208/308/68 207/307/68 
s 4
f 204/303/19 202/304/19 206/309/19 208/308/19 
s 2
f 206/306/67 205/305/67 126/310/27 125/154/27 
s 4
f 205/305/23 207/307/23 129/311/23 126/310/23 
s 2
f 207/307/68 208/308/68 131/312/29 129/311/29 
s 4
f 208/308/19 206/309/19 125/155/19 131/312/19 
# 200 polygons - 12 triangles

