# 3ds Max Wavefront OBJ Exporter v0.97b - (c)2007 guruware
# File Created: 12.04.2015 15:55:22

mtllib Star.mtl

#
# object Box001
#

#
# object Star
#

#
# object Box002
#

v  -5.5355 14.9075 4.0240
v  -5.5355 14.9075 1.9648
v  -0.1260 0.2315 1.9648
v  -0.1260 0.2315 4.0240
v  -0.0830 0.2315 1.9648
v  -0.0830 0.2315 4.0240
v  -0.0103 0.2315 1.9648
v  -0.0103 0.2315 4.0240
v  5.5271 14.9073 1.9648
v  5.5271 14.9073 4.0240
v  -5.5355 14.9075 -0.0945
v  -0.1260 0.2315 -0.0945
v  -0.0830 0.2315 -0.0945
v  -0.0103 0.2315 -0.0945
v  5.5271 14.9073 -0.0945
v  -5.5355 14.9075 -2.1538
v  -0.1260 0.2315 -2.1538
v  -0.0830 0.2315 -2.1538
v  -0.0103 0.2315 -2.1538
v  5.5271 14.9073 -2.1538
v  -5.5355 14.9075 -4.2131
v  -0.1260 0.2315 -4.2131
v  -0.0830 0.2315 -4.2131
v  -0.0103 0.2315 -4.2131
v  5.5271 14.9073 -4.2131
v  -5.5355 24.4955 4.0240
v  -0.3682 39.9344 4.0240
v  -0.3682 39.9344 1.9648
v  -5.5355 24.4955 1.9648
v  -0.0830 39.9344 4.0240
v  -0.0830 39.9344 1.9648
v  0.1057 39.9344 4.0240
v  0.1057 39.9344 1.9648
v  5.0411 24.6652 4.0240
v  5.0411 24.6652 1.9648
v  -0.3682 39.9344 -0.0945
v  -5.5355 24.4955 -0.0945
v  -0.0830 39.9344 -0.0945
v  0.1057 39.9344 -0.0945
v  5.0411 24.6652 -0.0945
v  -0.3682 39.9344 -2.1538
v  -5.5355 24.4955 -2.1538
v  -0.0830 39.9344 -2.1538
v  0.1057 39.9344 -2.1538
v  5.0411 24.6652 -2.1538
v  -0.3682 39.9344 -4.2131
v  -5.5355 24.4955 -4.2131
v  -0.0830 39.9344 -4.2131
v  0.1057 39.9344 -4.2131
v  5.0411 24.6652 -4.2131
v  -5.5886 14.8331 4.0240
v  -19.9535 20.0664 4.0240
v  -0.0830 10.1572 4.0240
v  5.4642 14.8328 4.0240
v  -10.0183 20.0829 4.0240
v  -19.9535 20.0829 4.0240
v  -0.0830 20.0829 4.0240
v  9.8522 20.0829 4.0240
v  19.7875 20.0659 4.0240
v  19.7875 20.0829 4.0240
v  -5.5886 24.5699 4.0240
v  -19.9535 20.2526 4.0240
v  -0.0830 30.0087 4.0240
v  4.9781 24.6237 4.0240
v  19.7875 20.2526 4.0240
v  19.7875 20.0659 1.9648
v  19.7875 20.0659 -0.0945
v  19.7875 20.0659 -2.1538
v  19.7875 20.0659 -4.2131
v  19.7875 20.0829 1.9648
v  19.7875 20.0829 -0.0945
v  19.7875 20.0829 -2.1538
v  19.7875 20.0829 -4.2131
v  19.7875 20.2526 1.9648
v  19.7875 20.2526 -0.0945
v  19.7875 20.2526 -2.1538
v  19.7875 20.2526 -4.2131
v  5.4642 14.8328 -4.2131
v  -0.0830 10.1572 -4.2131
v  -5.5886 14.8331 -4.2131
v  9.8522 20.0829 -4.2131
v  -0.0830 20.0829 -4.2131
v  -10.0183 20.0829 -4.2131
v  -19.9535 20.0664 -4.2131
v  -19.9535 20.0829 -4.2131
v  4.9781 24.6237 -4.2131
v  -0.0830 30.0087 -4.2131
v  -5.5886 24.5699 -4.2131
v  -19.9535 20.2526 -4.2131
v  -19.9535 20.0664 -2.1538
v  -19.9535 20.0664 -0.0945
v  -19.9535 20.0664 1.9648
v  -19.9535 20.0829 -2.1538
v  -19.9535 20.0829 -0.0945
v  -19.9535 20.0829 1.9648
v  -19.9535 20.2526 -2.1538
v  -19.9535 20.2526 -0.0945
v  -19.9535 20.2526 1.9648
# 98 vertices

vn -0.9384 -0.3456 -0.0000
vn -0.5720 -0.8202 -0.0000
vn 0.0000 -1.0000 -0.0000
vn 0.5689 -0.8224 -0.0000
vn 0.9357 -0.3527 -0.0000
vn -0.9484 0.3171 -0.0000
vn -0.5843 0.8115 -0.0000
vn 0.0000 1.0000 -0.0000
vn 0.5885 0.8085 -0.0000
vn 0.9516 0.3073 -0.0000
vn 0.0000 0.0000 -1.0000
vn 0.0000 0.0000 1.0000
vn 0.3405 -0.9403 -0.0000
vn 0.8187 -0.5743 -0.0000
vn 1.0000 0.0000 -0.0000
vn 0.8022 0.5971 0.0000
vn 0.8022 0.5971 -0.0000
vn 0.2869 0.9580 0.0000
vn 0.2869 0.9580 -0.0000
vn -0.3372 -0.9414 -0.0000
vn -0.8177 -0.5757 -0.0000
vn -1.0000 0.0000 -0.0000
vn -0.8008 0.5989 0.0000
vn -0.8008 0.5989 -0.0000
vn -0.2826 0.9593 0.0000
vn -0.2826 0.9593 -0.0000
# 26 vertex normals

vt 1.0000 0.0000 0.0000
vt 1.0000 0.2500 0.0000
vt 0.7500 0.2500 0.0000
vt 0.7500 0.0000 0.0000
vt 0.5000 0.2500 0.0000
vt 0.5000 0.0000 0.0000
vt 0.2500 0.2500 0.0000
vt 0.2500 0.0000 0.0000
vt 0.0000 0.2500 0.0000
vt 0.0000 0.0000 0.0000
vt 1.0000 0.5000 0.0000
vt 0.7500 0.5000 0.0000
vt 0.5000 0.5000 0.0000
vt 0.2500 0.5000 0.0000
vt 0.0000 0.5000 0.0000
vt 1.0000 0.7500 0.0000
vt 0.7500 0.7500 0.0000
vt 0.5000 0.7500 0.0000
vt 0.2500 0.7500 0.0000
vt 0.0000 0.7500 0.0000
vt 1.0000 1.0000 0.0000
vt 0.7500 1.0000 0.0000
vt 0.5000 1.0000 0.0000
vt 0.2500 1.0000 0.0000
vt 0.0000 1.0000 0.0000
# 25 texture coords

g Box002
usemtl wire_224086086
s 2
f 1/1/1 2/2/1 3/3/2 4/4/2 
f 4/4/2 3/3/2 5/5/3 6/6/3 
f 6/6/3 5/5/3 7/7/4 8/8/4 
f 8/8/4 7/7/4 9/9/5 10/10/5 
f 2/2/1 11/11/1 12/12/2 3/3/2 
f 3/3/2 12/12/2 13/13/3 5/5/3 
f 5/5/3 13/13/3 14/14/4 7/7/4 
f 7/7/4 14/14/4 15/15/5 9/9/5 
f 11/11/1 16/16/1 17/17/2 12/12/2 
f 12/12/2 17/17/2 18/18/3 13/13/3 
f 13/13/3 18/18/3 19/19/4 14/14/4 
f 14/14/4 19/19/4 20/20/5 15/15/5 
f 16/16/1 21/21/1 22/22/2 17/17/2 
f 17/17/2 22/22/2 23/23/3 18/18/3 
f 18/18/3 23/23/3 24/24/4 19/19/4 
f 19/19/4 24/24/4 25/25/5 20/20/5 
s 4
f 26/10/6 27/8/7 28/7/7 29/9/6 
f 27/8/7 30/6/8 31/5/8 28/7/7 
f 30/6/8 32/4/9 33/3/9 31/5/8 
f 32/4/9 34/1/10 35/2/10 33/3/9 
f 29/9/6 28/7/7 36/14/7 37/15/6 
f 28/7/7 31/5/8 38/13/8 36/14/7 
f 31/5/8 33/3/9 39/12/9 38/13/8 
f 33/3/9 35/2/10 40/11/10 39/12/9 
f 37/15/6 36/14/7 41/19/7 42/20/6 
f 36/14/7 38/13/8 43/18/8 41/19/7 
f 38/13/8 39/12/9 44/17/9 43/18/8 
f 39/12/9 40/11/10 45/16/10 44/17/9 
f 42/20/6 41/19/7 46/24/7 47/25/6 
f 41/19/7 43/18/8 48/23/8 46/24/7 
f 43/18/8 44/17/9 49/22/9 48/23/8 
f 44/17/9 45/16/10 50/21/10 49/22/9 
s 8
f 1/10/11 4/8/12 51/7/12 52/9/12 
f 4/8/12 6/6/12 53/5/12 51/7/12 
f 6/6/12 8/4/12 54/3/12 53/5/12 
f 52/9/12 51/7/12 55/14/12 56/15/12 
f 51/7/12 53/5/12 57/13/12 55/14/12 
f 53/5/12 54/3/12 58/12/12 57/13/12 
f 54/3/12 59/2/12 60/11/12 58/12/12 
f 56/15/12 55/14/12 61/19/12 62/20/12 
f 55/14/12 57/13/12 63/18/12 61/19/12 
f 57/13/12 58/12/12 64/17/12 63/18/12 
f 58/12/12 60/11/12 65/16/12 64/17/12 
f 61/19/12 63/18/12 30/23/12 27/24/12 
f 63/18/12 64/17/12 32/22/12 30/23/12 
f 64/17/12 65/16/12 34/21/12 32/22/12 
s 16
f 10/10/13 9/8/13 66/7/14 59/9/14 
f 9/8/13 15/6/13 67/5/14 66/7/14 
f 15/6/13 20/4/13 68/3/14 67/5/14 
f 20/4/13 25/1/13 69/2/14 68/3/14 
f 59/9/14 66/7/14 70/14/15 60/15/15 
f 66/7/14 67/5/14 71/13/15 70/14/15 
f 67/5/14 68/3/14 72/12/15 71/13/15 
f 68/3/14 69/2/14 73/11/15 72/12/15 
f 60/15/15 70/14/15 74/19/16 65/20/16 
f 70/14/15 71/13/15 75/18/17 74/19/16 
f 71/13/15 72/12/15 76/17/16 75/18/17 
f 72/12/15 73/11/15 77/16/16 76/17/16 
f 65/20/16 74/19/16 35/24/18 34/25/19 
f 74/19/16 75/18/17 40/23/19 35/24/18 
f 75/18/17 76/17/16 45/22/19 40/23/19 
f 76/17/16 77/16/16 50/21/18 45/22/19 
s 32
f 25/10/12 24/8/11 78/7/11 69/9/11 
f 24/8/11 23/6/11 79/5/11 78/7/11 
f 23/6/11 22/4/11 80/3/11 79/5/11 
f 69/9/11 78/7/11 81/14/11 73/15/11 
f 78/7/11 79/5/11 82/13/11 81/14/11 
f 79/5/11 80/3/11 83/12/11 82/13/11 
f 80/3/11 84/2/11 85/11/11 83/12/11 
f 73/15/11 81/14/11 86/19/12 77/20/11 
f 81/14/11 82/13/11 87/18/11 86/19/12 
f 82/13/11 83/12/11 88/17/11 87/18/11 
f 83/12/11 85/11/11 89/16/11 88/17/11 
f 86/19/12 87/18/11 48/23/11 49/24/11 
f 87/18/11 88/17/11 46/22/11 48/23/11 
f 88/17/11 89/16/11 47/21/12 46/22/11 
s 64
f 21/10/20 16/8/20 90/7/21 84/9/21 
f 16/8/20 11/6/20 91/5/21 90/7/21 
f 11/6/20 2/4/20 92/3/21 91/5/21 
f 2/4/20 1/1/20 52/2/21 92/3/21 
f 84/9/21 90/7/21 93/14/22 85/15/22 
f 90/7/21 91/5/21 94/13/22 93/14/22 
f 91/5/21 92/3/21 95/12/22 94/13/22 
f 92/3/21 52/2/21 56/11/22 95/12/22 
f 85/15/22 93/14/22 96/19/23 89/20/23 
f 93/14/22 94/13/22 97/18/24 96/19/23 
f 94/13/22 95/12/22 98/17/23 97/18/24 
f 95/12/22 56/11/22 62/16/23 98/17/23 
f 89/20/23 96/19/23 42/24/25 47/25/26 
f 96/19/23 97/18/24 37/23/26 42/24/25 
f 97/18/24 98/17/23 29/22/26 37/23/26 
f 98/17/23 62/16/23 26/21/25 29/22/26 
# 92 polygons

